<svg width="26" height="26" viewBox="0 0 26 26" fill="none" xmlns="http://www.w3.org/2000/svg">
<path d="M13.185 19.204C12.131 19.204 11.2187 18.949 10.448 18.439C9.67733 17.9177 9.14467 17.2093 8.85 16.314L10.516 15.702C10.7653 16.2573 11.128 16.6993 11.604 17.028C12.08 17.3453 12.6297 17.504 13.253 17.504C13.9103 17.504 14.4317 17.3453 14.817 17.028C15.2137 16.7107 15.412 16.2573 15.412 15.668C15.412 15.4187 15.3553 15.192 15.242 14.988C15.14 14.7727 15.021 14.597 14.885 14.461C14.749 14.325 14.5393 14.189 14.256 14.053C13.9727 13.9057 13.7347 13.798 13.542 13.73C13.3607 13.6507 13.0887 13.5487 12.726 13.424C12.2727 13.2653 11.9327 13.1407 11.706 13.05C11.4793 12.9593 11.179 12.812 10.805 12.608C10.4423 12.3927 10.1647 12.183 9.972 11.979C9.79067 11.7637 9.62633 11.486 9.479 11.146C9.33167 10.806 9.258 10.4263 9.258 10.007C9.258 9.13433 9.598 8.39767 10.278 7.797C10.958 7.19633 11.8817 6.896 13.049 6.896C14.0237 6.896 14.8227 7.11133 15.446 7.542C16.0807 7.97267 16.5057 8.545 16.721 9.259L15.089 9.803C14.9303 9.44033 14.664 9.15133 14.29 8.936C13.9273 8.70933 13.4683 8.596 12.913 8.596C12.3463 8.596 11.8987 8.72067 11.57 8.97C11.2527 9.21933 11.094 9.57067 11.094 10.024C11.094 10.33 11.2187 10.602 11.468 10.84C11.7173 11.078 11.978 11.2537 12.25 11.367C12.522 11.4803 12.9357 11.6333 13.491 11.826C13.831 11.9507 14.0803 12.047 14.239 12.115C14.409 12.1717 14.6527 12.2737 14.97 12.421C15.2873 12.5683 15.531 12.7043 15.701 12.829C15.871 12.9423 16.0693 13.101 16.296 13.305C16.5227 13.509 16.6927 13.7187 16.806 13.934C16.9307 14.138 17.0327 14.393 17.112 14.699C17.2027 14.9937 17.248 15.311 17.248 15.651C17.248 16.7617 16.8683 17.6343 16.109 18.269C15.3497 18.8923 14.375 19.204 13.185 19.204Z" fill="#E4572E"/>
<path d="M18.3422 3.62448L18.3421 3.62461L18.3525 3.63022L23.7546 6.54627L23.68 12.4937L23.6799 12.4937L23.68 12.5063L23.7546 18.4537L18.3525 21.3698L18.3524 21.3697L18.3422 21.3755L13 24.4243L7.65783 21.3755L7.6579 21.3754L7.64751 21.3698L2.24542 18.4537L2.31996 12.5063L2.32012 12.5063L2.31996 12.4937L2.24542 6.54627L7.64751 3.63022L7.64757 3.63034L7.65783 3.62448L13 0.575695L18.3422 3.62448Z" stroke="#E4572E"/>
</svg>
